PathFileType	4	(X/Y/Z)	C:/Users/beibeiliu/ov580/test_trc/User3\out6_training_dense_right.trc
DataRate	CameraRate	NumFrames	NumMarkers	Units	OrigDataRate	OrigDataStartFrame	OrigNumFrames
120	120	16	19	mm	120	188	500
Frame#	Time	ThumbCMC			ThumbMCP			ThumbIP			ThumbTip			IndexMCP			IndexPIP			IndexTip			MiddleMCP			MiddlePIP			MiddleTip			RingMCP			RingPIP			RingTip			PinkyMCP			PinkyPIP			PinkyTip			BackHand1			BackHand2			BackHand3	
		X0	Y0	Z0	X1	Y1	Z1	X2	Y2	Z2	X3	Y3	Z3	X4	Y4	Z4	X5	Y5	Z5	X6	Y6	Z6	X7	Y7	Z7	X8	Y8	Z8	X9	Y9	Z9	X10	Y10	Z10	X11	Y11	Z11	X12	Y12	Z12	X13	Y13	Z13	X14	Y14	Z14	X15	Y15	Z15	X16	Y16	Z16	X17	Y17	Z17	X18	Y18	Z18	
187	1.55833	203.286	40.6102	44.9231	201.871	30.513	9.5107	206.494	17.7302	-17.4945	223.719	0.112298	-30.7496	257.971	59.3762	-7.54836	266.337	68.8764	-35.8257	279.277	69.8753	-53.584	265.792	30.7742	-13.7388	246.629	6.58775	-31.7434	225.273	-4.27	-0.882725	268.249	9.73878	-4.31769	247.627	-9.37515	-9.43275	228.266	-3.68729	21.0815	275.366	-6.39087	10.0393	250.743	-19.7383	7.1411	234.889	-9.12037	31.9636	270.747	33.369	53.4982	257.162	31.6175	78.9342	239.489	54.1124	52.7137	
188	1.56667	199.524	39.7908	44.2586	191.879	31.3974	8.33793	203.961	18.5412	-19.9849	218.245	1.04637	-32.4447	251.618	62.1454	-11.4062	261.515	66.1491	-36.9744	272.332	68.7275	-56.4551	259.94	31.0735	-18.6131	247.245	5.7061	-32.2176	220.254	-4.4852	-0.286926	262.17	11.8845	-4.78312	243.242	-11.5997	-9.70959	224.961	-6.02632	20.85	268.648	-1.18246	9.85378	244.848	-16.474	3.59957	229.842	-6.79625	30.1623	263.957	32.3248	52.3424	252.639	32.6397	76.4303	236.152	51.911	56.9618	
189	1.575	191.492	41.1434	39.6879	187.889	31.3243	5.85676	195.966	18.0824	-23.5117	213.363	1.07241	-32.0137	242.121	59.0631	-11.6073	250.424	64.3905	-41.5947	256.898	63.7631	-63.443	251.894	30.6185	-19.7355	231.695	4.68316	-33.6857	211.303	-5.06562	-3.16142	254.648	9.96741	-8.69211	233.503	-10.3049	-11.0722	220.492	-7.82991	19.6673	264.501	-3.54161	10.5562	238.094	-15.2901	3.05836	227.147	-8.89294	27.5405	259.925	32.9776	50.0995	245.714	32.1105	76.9764	227.037	53.379	52.7451	
190	1.58333	184.014	38.5018	43.8211	181.065	29.2346	7.1872	186.404	16.7915	-19.7817	206.23	-0.258018	-33.4746	231.6	55.31	-18.5562	236.198	52.9298	-46.4218	240.449	45.0042	-71.923	242.906	29.1152	-18.0789	225.299	0.0265363	-31.7638	206.473	-8.09868	1.99111	246.179	8.34294	-9.84851	227.271	-12.4588	-10.9561	212.26	-6.2392	21.8131	255.387	0.205598	8.63099	233.093	-17.9067	2.08258	222.355	-10.6601	28.4347	253.486	32.5377	45.1211	238.906	31.9368	77.0545	219.022	54.1347	50.559	
191	1.59167	181.074	37.0374	39.2702	173.811	26.5787	11.7029	179.466	14.0312	-22.6184	192.427	-1.79898	-33.9022	223.605	44.0549	-24.9704	221.843	37.7958	-49.5617	219.493	27.3557	-71.0301	233.786	21.1403	-24.1762	217.104	-3.52595	-32.4725	196.74	-9.52187	2.25048	241.279	6.40408	-8.0456	218.706	-15.377	-10.9213	204.249	-7.56611	18.838	249.901	-6.38203	5.21063	226.587	-23.7368	4.41629	214.771	-8.01301	28.7728	244.738	35.9954	42.5359	232.781	32.8959	72.517	216.444	50.166	46.047	
192	1.6	173.602	37.0775	39.0036	163.814	25.4215	7.09484	174.376	12.5234	-19.9837	184.506	-4.3009	-34.1577	210.329	42.3928	-26.6154	211.607	30.6568	-48.6368	206.356	15.3834	-74.267	225.387	18.213	-25.2917	204.495	-6.49889	-31.7365	187.045	-10.7189	3.52132	229.415	2.42891	-13.4657	212.157	-20.2708	-10.3856	195.664	-6.96217	19.3893	237.886	-6.89275	1.31677	215.925	-24.8447	3.57692	209.185	-14.1414	30.279	238.641	31.3371	39.5754	229.027	32.3341	66.6809	207.884	51.1501	47.9766	
193	1.60833	168.248	35.1012	42.0589	159.605	24.6483	4.69603	161.5	11.2383	-17.992	176.149	-5.95526	-35.26	204.501	43.8707	-24.7801	202.466	35.8692	-51.6711	197.193	22.5365	-77.6349	214.64	18.2862	-27.5642	196.616	-4.53868	-35.3599	179.424	-9.95737	0.450889	224.274	2.59628	-11.2572	198.884	-18.6099	-11.3819	188.091	-7.79162	19.9487	233.623	-11.8999	2.89328	206.708	-26.7825	3.79867	202.238	-12.861	30.6711	236.701	29.1658	35.5906	226.677	28.1029	69.7506	203.255	49.0975	47.1242	
194	1.61667	159.443	36.3381	39.7732	149.729	24.3517	5.75942	153.899	10.4463	-21.6567	166.855	-6.53547	-33.6036	200.142	45.7947	-28.7012	196.756	43.0671	-54.7197	197.421	33.5377	-77.2064	208.382	17.2549	-30.2754	189.241	-7.9404	-34.9348	172.906	-11.5733	0.395569	213.742	0.946479	-14.365	193.402	-20.4535	-12.0996	182.741	-12.791	18.8014	220.527	-9.62097	-3.60638	201.415	-27.2075	0.422514	191.248	-13.0729	24.2455	226.602	28.6623	32.7539	220.216	28.9963	65.7959	197.52	50.2401	42.7689	
195	1.625	155.476	35.7503	37.7546	144.929	23.2133	6.13483	145.606	9.31708	-17.8477	160.431	-7.0417	-31.4788	190.47	49.1287	-29.2744	188.268	50.5446	-54.9037	187.245	46.872	-82.4202	196.421	21.5286	-31.9426	177.43	-4.94471	-37.1349	167.379	-12.5809	-2.18919	204.85	-0.35683	-16.4575	184.485	-19.8259	-13.9859	173.487	-10.9783	17.9934	213.073	-10.7222	-5.5415	192.308	-27.2936	0.0314952	182.267	-9.63256	25.8401	215.853	30.5023	33.21	212.477	27.829	63.2803	190.319	48.266	43.1466	
196	1.63333	146.614	35.2723	39.3337	136.723	22.9264	6.80176	137.812	8.86046	-17.4605	148.212	-7.78534	-34.5743	180.954	52.8076	-30.007	179.735	53.3691	-54.0444	180.175	54.3051	-79.5029	187.977	20.622	-33.6161	169.108	-5.38486	-38.2328	158.439	-9.76855	1.2732	194.896	4.11978	-18.8162	175.868	-20.6489	-14.1177	167.052	-11.8854	17.6781	203.555	-6.9627	-5.56089	180.601	-24.7554	1.09493	175.599	-15.4179	27.2071	214.324	30.0405	29.8146	205.761	27.4582	64.7061	183.39	48.2978	41.1018	
197	1.64167	139.028	35.3158	40.4897	127.55	23.764	4.77574	128.706	10.2783	-21.023	139.807	-6.58403	-32.2448	172.085	53.3189	-27.9776	172.315	56.2383	-56.5599	174.909	56.0602	-77.0498	179.997	25.6105	-31.4526	161.812	-0.792031	-41.9731	151.762	-9.04834	-0.0499757	185.914	5.96081	-19.7934	167.239	-19.3768	-14.1212	156.546	-10.5958	13.9669	199.979	-9.05873	-5.85294	173.171	-23.4114	-1.29	168.33	-10.6364	22.5153	203.536	30.6852	27.5716	195.536	30.5308	63.1594	173.997	52.7295	40.0564	
198	1.65	132.416	35.8047	39.3727	119.494	24.764	10.2762	120.157	11.5803	-19.9605	131.586	-6.34559	-38.6376	161.217	56.8353	-26.3891	163.04	58.713	-55.9715	161.893	63.4129	-81.7516	174.179	23.1149	-33.9407	149.794	-0.27777	-41.5253	140.825	-8.02966	-3.2704	180.025	5.76775	-19.9577	157.414	-17.5119	-16.3307	148.637	-9.41982	11.0713	189.988	-6.85734	-9.66049	166.147	-22.8452	-2.70998	160.717	-12.5536	21.8324	195.177	32.1898	28.397	190.226	33.6664	56.8758	167.832	50.3295	40.3613	
199	1.65833	125.595	37.3917	35.2273	110.317	26.2573	3.81811	114.098	13.0389	-22.2991	123.454	-3.18691	-36.6274	154.432	57.5229	-31.506	148.831	63.7367	-53.8908	150.977	64.2537	-78.7844	162.999	26.1571	-36.6892	142.093	3.18732	-43.6572	135.471	-7.03781	-3.51897	170.614	7.55728	-22.4813	147.041	-13.3673	-19.225	142.835	-6.58649	14.1241	182.854	-4.85387	-10.0524	156.381	-20.6431	-5.45017	152.184	-8.57322	20.3601	189.981	32.7948	23.7638	183.072	32.3932	58.372	157.521	55.7866	38.6526	
200	1.66667	116.788	37.8862	37.9739	102.019	27.2195	9.91748	103.57	14.8257	-21.8013	112.398	-0.84659	-37.8122	141.923	60.1358	-29.3309	138.904	62.9125	-57.7095	136.287	61.3654	-81.867	153.411	26.8036	-37.3293	134.292	2.93159	-43.4642	126.296	-6.37507	-5.05751	161.652	8.6043	-24.6679	140.972	-13.8222	-17.7457	136.904	-4.31696	15.5672	174.23	-4.08653	-12.9898	147.311	-17.3799	-7.13369	144.781	-7.47251	20.7983	178.436	38.3698	23.5162	177.665	31.6799	59.0036	152.381	54.4682	37.633	
201	1.675	106.981	39.5759	41.3354	93.1647	28.7486	7.34997	92.7021	17.3289	-17.4787	103.374	0.98895	-36.8948	130.323	57.5609	-30.2868	125.809	54.9399	-59.8526	118.198	49.2097	-82.69	144.676	27.4507	-36.4324	120.61	4.88724	-43.2653	116.471	-3.68044	-1.2676	154.254	10.0349	-23.5471	134.806	-13.7895	-19.9709	125.859	-3.04258	12.6147	165.312	-1.06284	-13.1264	142.616	-19.036	-10.3542	138.812	-6.81654	19.0337	173.689	35.2433	22.1891	169.153	35.923	54.2286	140.383	54.8783	39.2204	
202	1.68333	100.869	38.8556	38.4968	86.0225	27.7183	10.641	85.0843	16.5301	-19.8298	98.7149	2.24446	-35.5483	116.506	53.2063	-36.0679	109.639	42.9785	-60.026	101.903	30.1408	-81.211	132.16	31.15	-35.513	113.871	1.68026	-42.1904	106.25	-2.75181	-4.71611	141.636	12.561	-26.9374	124.301	-12.8729	-18.5716	120.367	-4.07848	11.5042	157.695	-0.732319	-16.3207	134.211	-15.9076	-12.3814	131.657	-8.09997	18.3182	165.003	40.1168	22.6642	163.944	35.2293	51.5344	134.177	55.7238	36.68	
